<svg xmlns="http://www.w3.org/2000/svg" xmlns:xlink="http://www.w3.org/1999/xlink" version="1.1" width="1000" height="1000" viewBox="0 0 1000 1000" xml:space="preserve">
<desc>Created with Fabric.js 3.5.0</desc>
<defs>
</defs>
<rect x="0" y="0" width="100%" height="100%" fill="#ffffff"/>
<g transform="matrix(0.7333 0 0 0.7333 511.1881 641.5453)" id="538290">
<g style="" vector-effect="non-scaling-stroke">
		<g transform="matrix(0.1333 0 0 -0.1333 203.9922 -116.382)">
<path style="stroke: none; stroke-width: 1; stroke-dasharray: none; stroke-linecap: butt; stroke-dashoffset: 0; stroke-linejoin: miter; stroke-miterlimit: 4; is-custom-font: none; font-file-url: none; fill: rgb(0,0,0); fill-rule: nonzero; opacity: 1;" transform=" translate(-6530.0039, -5872.7215)" d="M 6722 6430 c -16 -10 -33 -24 -37 -30 c -4 -7 -7 -214 -6 -460 c 2 -496 3 -493 -60 -524 c -41 -20 -137 -21 -176 -1 c -47 24 -58 42 -63 114 c -5 60 -7 66 -29 69 c -12 2 -34 1 -47 -2 c -23 -6 -24 -10 -24 -87 c 0 -59 5 -93 21 -129 c 31 -71 55 -80 229 -80 c 171 0 190 7 226 83 l 24 52 l 0 501 c 0 549 2 530 -58 494 z" stroke-linecap="round"/>
</g>
		<g transform="matrix(0.1333 0 0 -0.1333 542.3242 -114.8608)">
<path style="stroke: none; stroke-width: 1; stroke-dasharray: none; stroke-linecap: butt; stroke-dashoffset: 0; stroke-linejoin: miter; stroke-miterlimit: 4; is-custom-font: none; font-file-url: none; fill: rgb(0,0,0); fill-rule: nonzero; opacity: 1;" transform=" translate(-9067.5, -5861.315)" d="M 8865 6419 c -11 -4 -31 -10 -45 -13 l -25 -5 l 2 -543 c 2 -299 3 -546 3 -550 c 0 -5 23 -8 50 -8 l 50 0 l 0 274 c 0 150 3 287 6 304 c 4 18 15 34 31 41 c 42 19 79 -13 107 -94 c 10 -27 21 -59 26 -70 c 5 -11 16 -40 24 -65 c 14 -46 41 -118 56 -155 c 16 -39 62 -170 67 -192 c 8 -34 27 -45 75 -41 l 43 3 l 3 546 l 2 547 l -37 4 c -21 3 -43 3 -50 1 c -9 -4 -13 -80 -15 -295 l -3 -290 l -24 -19 c -31 -25 -45 -24 -81 9 c -34 31 -88 173 -114 305 c -17 80 -56 208 -82 264 c -18 39 -42 53 -69 42 z" stroke-linecap="round"/>
</g>
		<g transform="matrix(0.1333 0 0 -0.1333 371.0174 -114.6549)">
<path style="stroke: none; stroke-width: 1; stroke-dasharray: none; stroke-linecap: butt; stroke-dashoffset: 0; stroke-linejoin: miter; stroke-miterlimit: 4; is-custom-font: none; font-file-url: none; fill: rgb(0,0,0); fill-rule: nonzero; opacity: 1;" transform=" translate(-7782.7096, -5859.7712)" d="M 7800 6398 c -12 -29 -40 -153 -40 -179 c 0 -20 56 -78 76 -79 c 10 0 27 -62 38 -135 c 2 -16 9 -57 16 -90 c 24 -126 36 -235 28 -250 c -15 -25 -62 -44 -125 -49 c -54 -5 -65 -2 -107 24 c -27 17 -46 37 -46 47 c 0 10 12 81 26 158 c 14 77 28 157 31 178 l 6 38 l -43 -23 c -50 -26 -49 -25 -79 -193 c -12 -66 -27 -140 -32 -165 c -25 -112 -45 -202 -60 -270 c -6 -30 -15 -65 -19 -77 c -11 -28 -4 -33 41 -33 c 41 0 52 12 62 65 c 25 129 29 143 45 149 c 9 3 31 11 47 17 c 49 16 220 11 266 -9 c 44 -19 45 -21 58 -113 c 13 -94 23 -109 71 -109 c 31 0 40 4 40 18 c 0 34 -55 300 -125 602 c -8 36 -22 99 -30 140 c -41 214 -70 326 -86 346 c -17 21 -48 17 -59 -8 z" stroke-linecap="round"/>
</g>
		<g transform="matrix(0.1333 0 0 -0.1333 -601.7092 -113.5623)">
<path style="stroke: none; stroke-width: 1; stroke-dasharray: none; stroke-linecap: butt; stroke-dashoffset: 0; stroke-linejoin: miter; stroke-miterlimit: 4; is-custom-font: none; font-file-url: none; fill: rgb(0,0,0); fill-rule: nonzero; opacity: 1;" transform=" translate(-487.2593, -5851.5792)" d="M 444 6402 l -41 -3 l -23 -112 c -12 -62 -29 -138 -37 -170 c -18 -76 -71 -322 -134 -622 c -35 -168 -37 -180 -33 -187 c 3 -5 22 -8 43 -8 c 35 0 37 2 49 45 c 7 25 12 57 12 72 c 0 98 59 133 215 125 c 59 -2 115 -11 136 -20 c 32 -14 38 -22 43 -56 c 22 -154 28 -166 82 -166 c 24 0 44 4 44 8 c 0 5 -9 51 -20 103 c -22 105 -70 335 -132 629 c -22 107 -44 213 -49 235 c -5 22 -12 57 -16 78 c -3 21 -11 40 -17 42 c -23 7 -82 10 -122 7 z m 72 -235 c 18 -16 29 -38 35 -73 c 9 -47 19 -103 39 -209 c 35 -179 33 -245 -5 -245 c -8 0 -15 -5 -15 -11 c 0 -20 -170 -6 -204 16 c -31 20 -31 29 -6 165 c 5 30 14 80 19 110 c 31 176 46 227 72 250 c 30 25 33 25 65 -3 z" stroke-linecap="round"/>
</g>
		<g transform="matrix(0.1333 0 0 -0.1333 -432.7847 -113.574)">
<path style="stroke: none; stroke-width: 1; stroke-dasharray: none; stroke-linecap: butt; stroke-dashoffset: 0; stroke-linejoin: miter; stroke-miterlimit: 4; is-custom-font: none; font-file-url: none; fill: rgb(0,0,0); fill-rule: nonzero; opacity: 1;" transform=" translate(-1754.1813, -5851.6666)" d="M 1495 6401 c -3 -2 -5 -251 -5 -553 l 0 -549 l 53 3 l 52 3 l 2 150 c 1 83 2 162 2 176 c 2 54 93 85 161 54 c 45 -20 63 -61 99 -225 c 4 -19 16 -63 27 -97 l 18 -63 l 43 0 c 24 0 43 4 43 8 c 0 5 -9 43 -20 85 c -11 43 -29 111 -40 154 c -28 108 -26 124 20 177 c 53 63 62 97 67 269 c 8 246 -19 370 -87 396 c -25 10 -427 21 -435 12 z m 355 -121 c 21 -11 41 -28 44 -37 c 5 -21 11 -220 8 -315 c -2 -65 -3 -68 -39 -95 c -34 -26 -42 -28 -117 -26 c -93 3 -134 16 -141 47 c -3 11 -4 108 -3 215 l 3 194 l 30 18 c 44 26 163 25 215 -1 z" stroke-linecap="round"/>
</g>
		<g transform="matrix(0.1333 0 0 -0.1333 -272.6185 -113.9517)">
<path style="stroke: none; stroke-width: 1; stroke-dasharray: none; stroke-linecap: butt; stroke-dashoffset: 0; stroke-linejoin: miter; stroke-miterlimit: 4; is-custom-font: none; font-file-url: none; fill: rgb(0,0,0); fill-rule: nonzero; opacity: 1;" transform=" translate(-2955.4245, -5854.5)" d="M 2709 6399 c -5 -3 -8 -229 -7 -550 l 3 -544 l 250 0 l 250 0 l 3 24 c 2 12 1 34 -2 47 l -6 24 l -164 0 c -166 0 -205 7 -227 42 c -10 15 -12 278 -3 303 c 4 9 24 25 45 35 c 31 17 59 20 154 20 l 116 0 l -3 48 l -3 47 l -126 5 c -126 5 -144 10 -176 49 c -16 18 -18 273 -3 301 c 21 38 50 45 225 50 l 170 5 l 0 49 l 0 49 l -243 1 c -134 0 -248 -2 -253 -5 z" stroke-linecap="round"/>
</g>
		<g transform="matrix(0.1333 0 0 -0.1333 -114.0904 -113.6363)">
<path style="stroke: none; stroke-width: 1; stroke-dasharray: none; stroke-linecap: butt; stroke-dashoffset: 0; stroke-linejoin: miter; stroke-miterlimit: 4; is-custom-font: none; font-file-url: none; fill: rgb(0,0,0); fill-rule: nonzero; opacity: 1;" transform=" translate(-4144.3847, -5852.1344)" d="M 3905 6394 c -10 -10 -12 -133 -11 -551 l 1 -538 l 185 -3 c 227 -4 249 1 287 66 l 28 47 l 0 435 l 0 435 l -27 47 c -20 33 -37 49 -60 56 c -52 17 -388 21 -403 6 z m 325 -106 c 63 -24 60 -2 60 -442 l 0 -401 l -35 -22 c -49 -32 -183 -33 -226 -2 l -29 20 l 0 408 c 0 452 -5 421 67 447 c 39 14 114 10 163 -8 z" stroke-linecap="round"/>
</g>
		<g transform="matrix(0.1333 0 0 -0.1333 43.9832 -113.8185)">
<path style="stroke: none; stroke-width: 1; stroke-dasharray: none; stroke-linecap: butt; stroke-dashoffset: 0; stroke-linejoin: miter; stroke-miterlimit: 4; is-custom-font: none; font-file-url: none; fill: rgb(0,0,0); fill-rule: nonzero; opacity: 1;" transform=" translate(-5329.939, -5853.5)" d="M 5080 6384 c -13 -34 -13 -1040 0 -1064 c 10 -19 23 -20 254 -20 l 244 0 l 6 36 c 12 61 3 64 -174 64 c -121 0 -164 4 -187 15 l -31 15 l -4 138 c -1 75 -2 151 0 168 c 6 49 45 63 187 66 l 120 3 l 0 45 l 0 45 l -125 5 c -78 3 -135 11 -152 19 l -28 14 l 0 164 l 0 163 l 33 20 c 28 18 50 20 188 20 c 107 0 159 4 167 12 c 16 16 15 78 0 83 c -7 2 -120 6 -251 8 l -238 4 l -9 -23 z" stroke-linecap="round"/>
</g>
</g>
</g>
</svg>