<?xml version="1.0" standalone="no"?>
<!DOCTYPE svg PUBLIC "-//W3C//DTD SVG 1.0//EN" "http://www.w3.org/TR/2001/REC-SVG-20010904/DTD/svg10.dtd">
<svg xmlns="http://www.w3.org/2000/svg" xmlns:xlink="http://www.w3.org/1999/xlink" id="body_1" width="1014" height="1014">

<g transform="matrix(2.0280004 0 0 2.0280004 0 0)">
	<g transform="matrix(0.1 0 -0 -0.1 0 500)">
        <path d="M3628 3643L3591 3606L3563 3630L3535 3654L3563 3625L3590 3595L3632 3638C 3656 3661 3672 3680 3670 3680C 3667 3680 3648 3663 3628 3643z" stroke="none" fill="#000000" fill-rule="nonzero" />
        <path d="M2615 3413C 2201 3164 2195 3159 2237 3101C 2248 3087 2385 2999 2540 2905L2540 2905L2824 2735L2717 2732L2610 2729L2610 2430L2610 2130L2755 2130L2900 2130L2900 2180L2900 2230L2800 2230L2700 2230L2700 2305L2700 2380L2768 2380C 2852 2380 2862 2387 2858 2436L2858 2436L2855 2475L2778 2478L2700 2481L2700 2560L2700 2640L2800 2640C 2893 2640 2900 2641 2900 2660C 2900 2685 2907 2685 2948 2660C 2993 2633 3044 2634 3064 2662C 3087 2694 3084 2733 3058 2756C 3045 2767 2901 2856 2738 2954C 2574 3051 2440 3134 2440 3138C 2441 3142 2580 3228 2751 3329C 2921 3430 3065 3521 3070 3531C 3088 3563 3081 3598 3054 3619C 3039 3631 3020 3640 3011 3640C 3002 3640 2824 3538 2615 3413z" stroke="none" fill="#000000" fill-rule="nonzero" />
        <path d="M4115 3615C 4086 3587 4083 3547 4108 3523C 4117 3513 4261 3424 4427 3325C 4593 3226 4728 3141 4726 3135C 4725 3130 4587 3044 4420 2945C 4254 2845 4111 2755 4104 2745C 4071 2701 4104 2640 4160 2640C 4206 2640 4932 3078 4944 3113C 4963 3166 4948 3178 4554 3414C 4347 3538 4169 3640 4158 3640C 4148 3640 4128 3629 4115 3615z" stroke="none" fill="#000000" fill-rule="nonzero" />
        <path d="M3349 3363L3315 3325L3353 3359C 3373 3378 3390 3395 3390 3397C 3390 3405 3382 3397 3349 3363z" stroke="none" fill="#000000" fill-rule="nonzero" />
        <path d="M3985 3200C 3995 3189 4005 3180 4008 3180C 4011 3180 4005 3189 3995 3200C 3985 3211 3975 3220 3972 3220C 3969 3220 3975 3211 3985 3200z" stroke="none" fill="#000000" fill-rule="nonzero" />
        <path d="M3362 3140C 3377 3112 3386 3104 3392 3112C 3404 3131 3402 3138 3380 3160C 3348 3192 3339 3183 3362 3140z" stroke="none" fill="#000000" fill-rule="nonzero" />
        <path d="M3420 3090C 3407 3082 3407 3078 3423 3063C 3433 3052 3440 3050 3440 3058C 3440 3065 3445 3070 3451 3070C 3459 3070 3461 3053 3458 3020C 3453 2974 3455 2969 3477 2964C 3490 2960 3507 2963 3515 2970C 3523 2977 3537 2980 3545 2976C 3555 2972 3565 2979 3572 2996C 3583 3019 3581 3024 3565 3037C 3547 3049 3544 3049 3535 3035C 3505 2985 3499 2984 3503 3027C 3506 3052 3503 3073 3496 3078C 3477 3093 3436 3100 3420 3090z" stroke="none" fill="#000000" fill-rule="nonzero" />
        <path d="M3906 3093C 3902 3089 3893 3085 3887 3085C 3880 3085 3859 3074 3839 3062C 3809 3043 3804 3036 3808 3010C 3815 2964 3840 2974 3856 3029C 3869 3077 3896 3085 3886 3039L3886 3039L3880 3005L3911 3037C 3931 3057 3941 3074 3937 3084C 3930 3101 3918 3105 3906 3093z" stroke="none" fill="#000000" fill-rule="nonzero" />
        <path d="M3747 3008C 3734 2989 3731 2988 3731 3003C 3730 3023 3713 3025 3673 3009C 3654 3002 3644 3002 3642 3009C 3637 3023 3613 3023 3605 3010C 3595 2994 3619 2960 3640 2960C 3651 2960 3665 2969 3672 2980C 3685 3000 3685 3000 3701 2978C 3721 2952 3740 2958 3769 2999C 3786 3023 3788 3030 3777 3030C 3769 3030 3755 3020 3747 3008z" stroke="none" fill="#000000" fill-rule="nonzero" />
        <path d="M3303 2796C 3307 2791 3304 2780 3298 2771C 3288 2758 3288 2757 3300 2768C 3312 2778 3322 2772 3360 2735L3360 2735L3405 2691L3400 2463L3395 2235L3350 2235L3305 2235L3300 2280L3295 2325L3250 2325L3205 2325L3205 2258C 3205 2198 3208 2187 3232 2163C 3256 2140 3270 2135 3329 2132C 3367 2130 3414 2133 3434 2140C 3497 2160 3500 2176 3500 2470L3500 2470L3500 2730L3469 2730C 3450 2730 3432 2723 3424 2713C 3412 2696 3406 2700 3353 2750C 3322 2780 3299 2801 3303 2796z" stroke="none" fill="#000000" fill-rule="nonzero" />
        <path d="M3259 2733C 3246 2717 3247 2716 3263 2729C 3279 2742 3284 2750 3276 2750C 3274 2750 3266 2742 3259 2733z" stroke="none" fill="#000000" fill-rule="nonzero" />
        <path d="M265 2718C 263 2711 236 2586 205 2440C 174 2294 146 2165 143 2152C 138 2130 140 2129 186 2132C 238 2135 233 2129 254 2223C 260 2249 262 2250 330 2250L330 2250L399 2250L411 2190L423 2130L466 2130C 489 2130 511 2133 513 2138C 515 2142 489 2276 454 2435C 419 2595 391 2726 390 2728C 390 2729 363 2730 330 2730C 290 2730 268 2726 265 2718zM354 2475C 364 2420 374 2367 376 2358C 381 2342 374 2340 330 2340C 278 2340 278 2340 283 2368C 286 2383 297 2441 306 2498C 316 2554 327 2595 331 2588C 334 2581 345 2530 354 2475z" stroke="none" fill="#000000" fill-rule="nonzero" />
        <path d="M810 2429L810 2129L858 2132L905 2135L910 2235C 915 2334 915 2335 940 2335C 963 2335 967 2328 991 2235L991 2235L1016 2135L1063 2132C 1097 2130 1110 2133 1110 2142C 1110 2149 1099 2197 1085 2247L1085 2247L1060 2340L1084 2363C 1114 2393 1125 2467 1118 2585C 1109 2721 1097 2730 924 2730L924 2730L810 2730L810 2429zM1008 2628C 1024 2612 1024 2458 1008 2442C 1001 2435 977 2430 953 2430L953 2430L910 2430L910 2535L910 2640L953 2640C 977 2640 1001 2635 1008 2628z" stroke="none" fill="#000000" fill-rule="nonzero" />
        <path d="M1420 2430L1420 2130L1565 2130L1710 2130L1710 2180L1710 2230L1610 2230L1510 2230L1510 2305L1510 2380L1578 2380C 1662 2380 1672 2387 1668 2436L1668 2436L1665 2475L1588 2478L1510 2481L1510 2560L1510 2640L1610 2640L1710 2640L1710 2685L1710 2730L1565 2730L1420 2730L1420 2430z" stroke="none" fill="#000000" fill-rule="nonzero" />
        <path d="M2010 2429L2010 2128L2130 2132C 2245 2135 2251 2136 2277 2163L2277 2163L2305 2190L2308 2414C 2312 2730 2312 2730 2119 2730L2119 2730L2010 2730L2010 2429zM2198 2632C 2207 2625 2210 2578 2208 2429L2208 2429L2205 2235L2158 2232L2110 2229L2110 2434L2110 2640L2148 2640C 2168 2640 2191 2636 2198 2632z" stroke="none" fill="#000000" fill-rule="nonzero" />
        <path d="M3915 2718C 3913 2711 3886 2586 3855 2440C 3824 2294 3796 2165 3793 2152C 3788 2130 3790 2129 3836 2132C 3888 2135 3883 2129 3904 2223C 3910 2249 3912 2250 3980 2250L3980 2250L4049 2250L4061 2190L4073 2130L4116 2130C 4139 2130 4161 2133 4163 2138C 4165 2142 4139 2276 4104 2435C 4069 2595 4041 2726 4040 2728C 4040 2729 4013 2730 3980 2730C 3940 2730 3918 2726 3915 2718zM4004 2475C 4014 2420 4024 2367 4026 2358C 4031 2342 4024 2340 3980 2340C 3928 2340 3928 2340 3933 2368C 3936 2383 3947 2441 3956 2498C 3966 2554 3977 2595 3981 2588C 3984 2581 3995 2530 4004 2475z" stroke="none" fill="#000000" fill-rule="nonzero" />
        <path d="M4460 2430L4460 2129L4508 2132L4555 2135L4560 2300L4565 2465L4625 2300L4685 2135L4730 2135L4775 2135L4778 2433L4780 2730L4730 2730L4680 2730L4680 2563C 4680 2472 4678 2399 4675 2402C 4672 2405 4644 2479 4612 2566L4612 2566L4555 2725L4507 2728L4460 2731L4460 2430z" stroke="none" fill="#000000" fill-rule="nonzero" />
	</g>
</g>
</svg>