<?xml version="1.0" standalone="no"?>
<!DOCTYPE svg PUBLIC "-//W3C//DTD SVG 20010904//EN"
 "http://www.w3.org/TR/2001/REC-SVG-20010904/DTD/svg10.dtd">
<svg version="1.0" xmlns="http://www.w3.org/2000/svg"
 width="1000.000000pt" height="1000.000000pt" viewBox="0 0 1000.000000 1000.000000"
 preserveAspectRatio="xMidYMid meet">

<g transform="translate(0.000000,1000.000000) scale(0.100000,-0.100000)"
fill="#000000" stroke="none">
<path d="M6722 6430 c-16 -10 -33 -24 -37 -30 -4 -7 -7 -214 -6 -460 2 -496 3
-493 -60 -524 -41 -20 -137 -21 -176 -1 -47 24 -58 42 -63 114 -5 60 -7 66
-29 69 -12 2 -34 1 -47 -2 -23 -6 -24 -10 -24 -87 0 -59 5 -93 21 -129 31 -71
55 -80 229 -80 171 0 190 7 226 83 l24 52 0 501 c0 549 2 530 -58 494z"/>
<path d="M8865 6419 c-11 -4 -31 -10 -45 -13 l-25 -5 2 -543 c2 -299 3 -546 3
-550 0 -5 23 -8 50 -8 l50 0 0 274 c0 150 3 287 6 304 4 18 15 34 31 41 42 19
79 -13 107 -94 10 -27 21 -59 26 -70 5 -11 16 -40 24 -65 14 -46 41 -118 56
-155 16 -39 62 -170 67 -192 8 -34 27 -45 75 -41 l43 3 3 546 2 547 -37 4
c-21 3 -43 3 -50 1 -9 -4 -13 -80 -15 -295 l-3 -290 -24 -19 c-31 -25 -45 -24
-81 9 -34 31 -88 173 -114 305 -17 80 -56 208 -82 264 -18 39 -42 53 -69 42z"/>
<path d="M7800 6398 c-12 -29 -40 -153 -40 -179 0 -20 56 -78 76 -79 10 0 27
-62 38 -135 2 -16 9 -57 16 -90 24 -126 36 -235 28 -250 -15 -25 -62 -44 -125
-49 -54 -5 -65 -2 -107 24 -27 17 -46 37 -46 47 0 10 12 81 26 158 14 77 28
157 31 178 l6 38 -43 -23 c-50 -26 -49 -25 -79 -193 -12 -66 -27 -140 -32
-165 -25 -112 -45 -202 -60 -270 -6 -30 -15 -65 -19 -77 -11 -28 -4 -33 41
-33 41 0 52 12 62 65 25 129 29 143 45 149 9 3 31 11 47 17 49 16 220 11 266
-9 44 -19 45 -21 58 -113 13 -94 23 -109 71 -109 31 0 40 4 40 18 0 34 -55
300 -125 602 -8 36 -22 99 -30 140 -41 214 -70 326 -86 346 -17 21 -48 17 -59
-8z"/>
<path d="M444 6402 l-41 -3 -23 -112 c-12 -62 -29 -138 -37 -170 -18 -76 -71
-322 -134 -622 -35 -168 -37 -180 -33 -187 3 -5 22 -8 43 -8 35 0 37 2 49 45
7 25 12 57 12 72 0 98 59 133 215 125 59 -2 115 -11 136 -20 32 -14 38 -22 43
-56 22 -154 28 -166 82 -166 24 0 44 4 44 8 0 5 -9 51 -20 103 -22 105 -70
335 -132 629 -22 107 -44 213 -49 235 -5 22 -12 57 -16 78 -3 21 -11 40 -17
42 -23 7 -82 10 -122 7z m72 -235 c18 -16 29 -38 35 -73 9 -47 19 -103 39
-209 35 -179 33 -245 -5 -245 -8 0 -15 -5 -15 -11 0 -20 -170 -6 -204 16 -31
20 -31 29 -6 165 5 30 14 80 19 110 31 176 46 227 72 250 30 25 33 25 65 -3z"/>
<path d="M1495 6401 c-3 -2 -5 -251 -5 -553 l0 -549 53 3 52 3 2 150 c1 83 2
162 2 176 2 54 93 85 161 54 45 -20 63 -61 99 -225 4 -19 16 -63 27 -97 l18
-63 43 0 c24 0 43 4 43 8 0 5 -9 43 -20 85 -11 43 -29 111 -40 154 -28 108
-26 124 20 177 53 63 62 97 67 269 8 246 -19 370 -87 396 -25 10 -427 21 -435
12z m355 -121 c21 -11 41 -28 44 -37 5 -21 11 -220 8 -315 -2 -65 -3 -68 -39
-95 -34 -26 -42 -28 -117 -26 -93 3 -134 16 -141 47 -3 11 -4 108 -3 215 l3
194 30 18 c44 26 163 25 215 -1z"/>
<path d="M2709 6399 c-5 -3 -8 -229 -7 -550 l3 -544 250 0 250 0 3 24 c2 12 1
34 -2 47 l-6 24 -164 0 c-166 0 -205 7 -227 42 -10 15 -12 278 -3 303 4 9 24
25 45 35 31 17 59 20 154 20 l116 0 -3 48 -3 47 -126 5 c-126 5 -144 10 -176
49 -16 18 -18 273 -3 301 21 38 50 45 225 50 l170 5 0 49 0 49 -243 1 c-134 0
-248 -2 -253 -5z"/>
<path d="M3905 6394 c-10 -10 -12 -133 -11 -551 l1 -538 185 -3 c227 -4 249 1
287 66 l28 47 0 435 0 435 -27 47 c-20 33 -37 49 -60 56 -52 17 -388 21 -403
6z m325 -106 c63 -24 60 -2 60 -442 l0 -401 -35 -22 c-49 -32 -183 -33 -226
-2 l-29 20 0 408 c0 452 -5 421 67 447 39 14 114 10 163 -8z"/>
<path d="M5080 6384 c-13 -34 -13 -1040 0 -1064 10 -19 23 -20 254 -20 l244 0
6 36 c12 61 3 64 -174 64 -121 0 -164 4 -187 15 l-31 15 -4 138 c-1 75 -2 151
0 168 6 49 45 63 187 66 l120 3 0 45 0 45 -125 5 c-78 3 -135 11 -152 19 l-28
14 0 164 0 163 33 20 c28 18 50 20 188 20 107 0 159 4 167 12 16 16 15 78 0
83 -7 2 -120 6 -251 8 l-238 4 -9 -23z"/>
</g>
</svg>
