<?xml version="1.0" standalone="no"?>
<!DOCTYPE svg PUBLIC "-//W3C//DTD SVG 20010904//EN"
 "http://www.w3.org/TR/2001/REC-SVG-20010904/DTD/svg10.dtd">
<svg version="1.0" xmlns="http://www.w3.org/2000/svg"
 width="1500.000000pt" height="1500.000000pt" viewBox="0 0 500.000000 500.000000"
 preserveAspectRatio="xMidYMid meet">

<g transform="translate(0.000000,500.000000) scale(0.100000,-0.100000)"
fill="#000000" stroke="none">
<path d="M3628 3643 l-37 -37 -28 24 -28 24 28 -29 27 -30 42 43 c24 23 40 42
38 42 -3 0 -22 -17 -42 -37z"/>
<path d="M2615 3413 c-414 -249 -420 -254 -378 -312 11 -14 148 -102 303 -196
l284 -170 -107 -3 -107 -3 0 -299 0 -300 145 0 145 0 0 50 0 50 -100 0 -100 0
0 75 0 75 68 0 c84 0 94 7 90 56 l-3 39 -77 3 -78 3 0 79 0 80 100 0 c93 0
100 1 100 20 0 25 7 25 48 0 45 -27 96 -26 116 2 23 32 20 71 -6 94 -13 11
-157 100 -320 198 -164 97 -298 180 -298 184 1 4 140 90 311 191 170 101 314
192 319 202 18 32 11 67 -16 88 -15 12 -34 21 -43 21 -9 0 -187 -102 -396
-227z"/>
<path d="M4115 3615 c-29 -28 -32 -68 -7 -92 9 -10 153 -99 319 -198 166 -99
301 -184 299 -190 -1 -5 -139 -91 -306 -190 -166 -100 -309 -190 -316 -200
-33 -44 0 -105 56 -105 46 0 772 438 784 473 19 53 4 65 -390 301 -207 124
-385 226 -396 226 -10 0 -30 -11 -43 -25z"/>
<path d="M3349 3363 l-34 -38 38 34 c20 19 37 36 37 38 0 8 -8 0 -41 -34z"/>
<path d="M3985 3200 c10 -11 20 -20 23 -20 3 0 -3 9 -13 20 -10 11 -20 20 -23
20 -3 0 3 -9 13 -20z"/>
<path d="M3362 3140 c15 -28 24 -36 30 -28 12 19 10 26 -12 48 -32 32 -41 23
-18 -20z"/>
<path d="M3420 3090 c-13 -8 -13 -12 3 -27 10 -11 17 -13 17 -5 0 7 5 12 11
12 8 0 10 -17 7 -50 -5 -46 -3 -51 19 -56 13 -4 30 -1 38 6 8 7 22 10 30 6 10
-4 20 3 27 20 11 23 9 28 -7 41 -18 12 -21 12 -30 -2 -30 -50 -36 -51 -32 -8
3 25 0 46 -7 51 -19 15 -60 22 -76 12z"/>
<path d="M3906 3093 c-4 -4 -13 -8 -19 -8 -7 0 -28 -11 -48 -23 -30 -19 -35
-26 -31 -52 7 -46 32 -36 48 19 13 48 40 56 30 10 l-6 -34 31 32 c20 20 30 37
26 47 -7 17 -19 21 -31 9z"/>
<path d="M3747 3008 c-13 -19 -16 -20 -16 -5 -1 20 -18 22 -58 6 -19 -7 -29
-7 -31 0 -5 14 -29 14 -37 1 -10 -16 14 -50 35 -50 11 0 25 9 32 20 13 20 13
20 29 -2 20 -26 39 -20 68 21 17 24 19 31 8 31 -8 0 -22 -10 -30 -22z"/>
<path d="M3303 2796 c4 -5 1 -16 -5 -25 -10 -13 -10 -14 2 -3 12 10 22 4 60
-33 l45 -44 -5 -228 -5 -228 -45 0 -45 0 -5 45 -5 45 -45 0 -45 0 0 -67 c0
-60 3 -71 27 -95 24 -23 38 -28 97 -31 38 -2 85 1 105 8 63 20 66 36 66 330
l0 260 -31 0 c-19 0 -37 -7 -45 -17 -12 -17 -18 -13 -71 37 -31 30 -54 51 -50
46z"/>
<path d="M3259 2733 c-13 -16 -12 -17 4 -4 16 13 21 21 13 21 -2 0 -10 -8 -17
-17z"/>
<path d="M265 2718 c-2 -7 -29 -132 -60 -278 -31 -146 -59 -275 -62 -288 -5
-22 -3 -23 43 -20 52 3 47 -3 68 91 6 26 8 27 76 27 l69 0 12 -60 12 -60 43 0
c23 0 45 3 47 8 2 4 -24 138 -59 297 -35 160 -63 291 -64 293 0 1 -27 2 -60 2
-40 0 -62 -4 -65 -12z m89 -243 c10 -55 20 -108 22 -117 5 -16 -2 -18 -46 -18
-52 0 -52 0 -47 28 3 15 14 73 23 130 10 56 21 97 25 90 3 -7 14 -58 23 -113z"/>
<path d="M810 2429 l0 -300 48 3 47 3 5 100 c5 99 5 100 30 100 23 0 27 -7 51
-100 l25 -100 47 -3 c34 -2 47 1 47 10 0 7 -11 55 -25 105 l-25 93 24 23 c30
30 41 104 34 222 -9 136 -21 145 -194 145 l-114 0 0 -301z m198 199 c16 -16
16 -170 0 -186 -7 -7 -31 -12 -55 -12 l-43 0 0 105 0 105 43 0 c24 0 48 -5 55
-12z"/>
<path d="M1420 2430 l0 -300 145 0 145 0 0 50 0 50 -100 0 -100 0 0 75 0 75
68 0 c84 0 94 7 90 56 l-3 39 -77 3 -78 3 0 79 0 80 100 0 100 0 0 45 0 45
-145 0 -145 0 0 -300z"/>
<path d="M2010 2429 l0 -301 120 4 c115 3 121 4 147 31 l28 27 3 224 c4 316 4
316 -189 316 l-109 0 0 -301z m188 203 c9 -7 12 -54 10 -203 l-3 -194 -47 -3
-48 -3 0 205 0 206 38 0 c20 0 43 -4 50 -8z"/>
<path d="M3915 2718 c-2 -7 -29 -132 -60 -278 -31 -146 -59 -275 -62 -288 -5
-22 -3 -23 43 -20 52 3 47 -3 68 91 6 26 8 27 76 27 l69 0 12 -60 12 -60 43 0
c23 0 45 3 47 8 2 4 -24 138 -59 297 -35 160 -63 291 -64 293 0 1 -27 2 -60 2
-40 0 -62 -4 -65 -12z m89 -243 c10 -55 20 -108 22 -117 5 -16 -2 -18 -46 -18
-52 0 -52 0 -47 28 3 15 14 73 23 130 10 56 21 97 25 90 3 -7 14 -58 23 -113z"/>
<path d="M4460 2430 l0 -301 48 3 47 3 5 165 5 165 60 -165 60 -165 45 0 45 0
3 298 2 297 -50 0 -50 0 0 -167 c0 -91 -2 -164 -5 -161 -3 3 -31 77 -63 164
l-57 159 -48 3 -47 3 0 -301z"/>
</g>
</svg>
